<svg xmlns="http://www.w3.org/2000/svg" viewBox="320 680 850 150" role="img" aria-label="CRACKS logo">
<g fill="#1a1a1a" fill-opacity="1"><g transform="translate(338.203129, 817.12491)"><g><path d="M 78.40625 2.625 C 64.6875 2.625 52.367188 -0.273438 41.453125 -6.078125 C 30.535156 -11.878906 21.957031 -19.957031 15.71875 -30.3125 C 9.476562 -40.664062 6.359375 -52.394531 6.359375 -65.5 C 6.359375 -78.601562 9.476562 -90.332031 15.71875 -100.6875 C 21.957031 -111.039062 30.535156 -119.117188 41.453125 -124.921875 C 52.367188 -130.722656 64.6875 -133.625 78.40625 -133.625 C 90.382812 -133.625 101.175781 -131.5 110.78125 -127.25 C 120.394531 -123.007812 128.378906 -116.898438 134.734375 -108.921875 L 111.15625 -87.578125 C 102.675781 -97.804688 92.382812 -102.921875 80.28125 -102.921875 C 73.164062 -102.921875 66.832031 -101.363281 61.28125 -98.25 C 55.726562 -95.132812 51.425781 -90.738281 48.375 -85.0625 C 45.320312 -79.382812 43.796875 -72.863281 43.796875 -65.5 C 43.796875 -58.132812 45.320312 -51.613281 48.375 -45.9375 C 51.425781 -40.257812 55.726562 -35.863281 61.28125 -32.75 C 66.832031 -29.632812 73.164062 -28.078125 80.28125 -28.078125 C 92.382812 -28.078125 102.675781 -33.191406 111.15625 -43.421875 L 134.734375 -22.078125 C 128.378906 -14.097656 120.394531 -7.984375 110.78125 -3.734375 C 101.175781 0.503906 90.382812 2.625 78.40625 2.625 Z M 78.40625 2.625 "/></g></g></g>
<g fill="#1a1a1a" fill-opacity="1"><g transform="translate(476.30997, 817.12491)"><g><path d="M 70.359375 -34.8125 L 50.15625 -34.8125 L 50.15625 0 L 13.09375 0 L 13.09375 -131 L 72.984375 -131 C 84.835938 -131 95.128906 -129.03125 103.859375 -125.09375 C 112.597656 -121.164062 119.335938 -115.550781 124.078125 -108.25 C 128.816406 -100.957031 131.1875 -92.382812 131.1875 -82.53125 C 131.1875 -73.050781 128.972656 -64.785156 124.546875 -57.734375 C 120.117188 -50.679688 113.785156 -45.160156 105.546875 -41.171875 L 133.8125 0 L 94.125 0 Z M 93.75 -82.53125 C 93.75 -88.644531 91.816406 -93.382812 87.953125 -96.75 C 84.085938 -100.113281 78.347656 -101.796875 70.734375 -101.796875 L 50.15625 -101.796875 L 50.15625 -63.4375 L 70.734375 -63.4375 C 78.347656 -63.4375 84.085938 -65.085938 87.953125 -68.390625 C 91.816406 -71.703125 93.75 -76.414062 93.75 -82.53125 Z M 93.75 -82.53125 "/></g></g></g>
<g fill="#FFD600" fill-opacity="1">
  <path d="M676 688L706 722L692 722L723 760L706 760L739 806L701 769L716 769L685 730L698 730L676 688Z"/>
  <path d="M720 696L742 721L733 721L752 744L739 744L720 696Z"/>
</g>
<g fill="#1a1a1a" fill-opacity="1"><g transform="translate(614.791075, 817.12491)"><g><path d="M 100.875 -25.453125 L 45.46875 -25.453125 L 35.1875 0 L -2.625 0 L 55.203125 -131 L 91.703125 -131 L 149.71875 0 L 111.15625 0 Z M 90.015625 -52.78125 L 73.171875 -94.6875 L 56.328125 -52.78125 Z M 90.015625 -52.78125 "/></g></g></g>
<g fill="#1a1a1a" fill-opacity="1"><g transform="translate(761.880485, 817.12491)"><g><path d="M 78.40625 2.625 C 64.6875 2.625 52.367188 -0.273438 41.453125 -6.078125 C 30.535156 -11.878906 21.957031 -19.957031 15.71875 -30.3125 C 9.476562 -40.664062 6.359375 -52.394531 6.359375 -65.5 C 6.359375 -78.601562 9.476562 -90.332031 15.71875 -100.6875 C 21.957031 -111.039062 30.535156 -119.117188 41.453125 -124.921875 C 52.367188 -130.722656 64.6875 -133.625 78.40625 -133.625 C 90.382812 -133.625 101.175781 -131.5 110.78125 -127.25 C 120.394531 -123.007812 128.378906 -116.898438 134.734375 -108.921875 L 111.15625 -87.578125 C 102.675781 -97.804688 92.382812 -102.921875 80.28125 -102.921875 C 73.164062 -102.921875 66.832031 -101.363281 61.28125 -98.25 C 55.726562 -95.132812 51.425781 -90.738281 48.375 -85.0625 C 45.320312 -79.382812 43.796875 -72.863281 43.796875 -65.5 C 43.796875 -58.132812 45.320312 -51.613281 48.375 -45.9375 C 51.425781 -40.257812 55.726562 -35.863281 61.28125 -32.75 C 66.832031 -29.632812 73.164062 -28.078125 80.28125 -28.078125 C 92.382812 -28.078125 102.675781 -33.191406 111.15625 -43.421875 L 134.734375 -22.078125 C 128.378906 -14.097656 120.394531 -7.984375 110.78125 -3.734375 C 101.175781 0.503906 90.382812 2.625 78.40625 2.625 Z M 78.40625 2.625 "/></g></g></g>
<g fill="#1a1a1a" fill-opacity="1"><g transform="translate(899.987318, 817.12491)"><g><path d="M 63.625 -47.53125 L 49.78125 -32.75 L 49.78125 0 L 13.09375 0 L 13.09375 -131 L 49.78125 -131 L 49.78125 -76.546875 L 100.5 -131 L 141.296875 -131 L 87.765625 -72.984375 L 144.09375 0 L 101.0625 0 Z M 63.625 -47.53125 "/></g></g></g>
<g fill="#1a1a1a" fill-opacity="1"><g transform="translate(1040.714066, 817.12491)"><g><path d="M 59.140625 2.625 C 48.535156 2.625 38.238281 1.316406 28.25 -1.296875 C 18.269531 -3.921875 10.164062 -7.421875 3.9375 -11.796875 L 16.09375 -39.109375 C 21.957031 -35.242188 28.753906 -32.125 36.484375 -29.75 C 44.222656 -27.382812 51.835938 -26.203125 59.328125 -26.203125 C 73.546875 -26.203125 80.65625 -29.753906 80.65625 -36.859375 C 80.65625 -40.609375 78.628906 -43.382812 74.578125 -45.1875 C 70.523438 -47 64.003906 -48.90625 55.015625 -50.90625 C 45.160156 -53.019531 36.925781 -55.289062 30.3125 -57.71875 C 23.695312 -60.15625 18.019531 -64.054688 13.28125 -69.421875 C 8.539062 -74.785156 6.171875 -82.023438 6.171875 -91.140625 C 6.171875 -99.117188 8.351562 -106.320312 12.71875 -112.75 C 17.09375 -119.175781 23.613281 -124.257812 32.28125 -128 C 40.945312 -131.75 51.582031 -133.625 64.1875 -133.625 C 72.800781 -133.625 81.285156 -132.65625 89.640625 -130.71875 C 97.992188 -128.78125 105.351562 -125.941406 111.71875 -122.203125 L 100.3125 -94.6875 C 87.832031 -101.425781 75.726562 -104.796875 64 -104.796875 C 56.632812 -104.796875 51.269531 -103.703125 47.90625 -101.515625 C 44.539062 -99.335938 42.859375 -96.503906 42.859375 -93.015625 C 42.859375 -89.515625 44.851562 -86.890625 48.84375 -85.140625 C 52.832031 -83.398438 59.257812 -81.59375 68.125 -79.71875 C 78.101562 -77.601562 86.363281 -75.328125 92.90625 -72.890625 C 99.457031 -70.453125 105.132812 -66.582031 109.9375 -61.28125 C 114.75 -55.976562 117.15625 -48.773438 117.15625 -39.671875 C 117.15625 -31.816406 114.96875 -24.707031 110.59375 -18.34375 C 106.226562 -11.976562 99.675781 -6.890625 90.9375 -3.078125 C 82.207031 0.722656 71.609375 2.625 59.140625 2.625 Z M 59.140625 2.625 "/></g></g></g>
</svg>
